<svg xmlns="http://www.w3.org/2000/svg"
 width="1200" height="200" viewBox="50 50 1200 150">
    <defs>
        <style>
        .cls-1{fill:#0069b4;}
        .cls-2{fill:#2581c4;}
        .cls-3{fill:#6f9ed4;}
        .cls-4{fill:#a4bde4;}
        .cls-5{fill:#d3ddf2;}
        .cls-6{font-size:69.35px;fill:#878787;font-family:Verdana-BoldItalic, Verdana;font-weight:700;font-style:italic;}
        .cls-7{font-size:34.675px;fill:#878787;font-family:Verdana-BoldItalic, Verdana;font-weight:700;font-style:italic;}
        </style>
    </defs>
<g transform="scale(0.98 1)">"
<text class="cls-6" transform="translate(196.8 129.14)">Hochschule Aalen</text>
  <text class="cls-7"  transform="translate(900 129.14)">
    <tspan x="0" dy="0em">AAbay</tspan><!-- Von unten nach oben!!! -->
    <tspan x="0" dy="-1em">IBS Testat 4</tspan>
  </text>
</g>
<path class="cls-1" d="M115.6,78.8c4.28-2.38,10.61-2.42,14.44-.1,4,2.43,4,6.65-.26,9.45-4.5,2.94-11.69,3-15.67.13-3.81-2.74-3-7,1.49-9.48"/>
<path class="cls-2" d="M142.19,79.81c3,0,5.6,1.46,5.85,3.35s-2.1,3.64-5.28,3.67-5.81-1.61-5.87-3.58,2.31-3.42,5.3-3.44"/>
<path class="cls-3" d="M156.14,79.72c3,0,5.76,1.45,6.25,3.35s-1.64,3.63-4.8,3.66-6-1.6-6.31-3.57,1.88-3.41,4.86-3.44"/>
<path class="cls-4" d="M170,79.59c3,0,5.94,1.45,6.65,3.34s-1.18,3.62-4.34,3.64S166.16,85,165.61,83s1.45-3.4,4.41-3.42"/>
<path class="cls-5" d="M184,79.49c3,0,6.1,1.45,7.06,3.33s-.74,3.6-3.87,3.63-6.36-1.59-7.16-3.54,1-3.4,4-3.42"/>
<path class="cls-2" d="M132.63,72.88a8.09,8.09,0,0,1,7.18,0c2.08,1.13,2.24,3,.28,4.28a8,8,0,0,1-7.48,0c-2-1.2-2-3.11,0-4.28"/>
<path class="cls-3" d="M141.5,67.79a8,8,0,0,1,6.82,0c2.06,1,2.36,2.76.59,3.86a7.87,7.87,0,0,1-7.08,0c-2-1.08-2.15-2.82-.33-3.86"/>
<path class="cls-4" d="M149.47,63.14a8,8,0,0,1,6.49,0c2,.93,2.45,2.5.85,3.5a7.83,7.83,0,0,1-6.73,0c-2-1-2.26-2.56-.61-3.51"/>
<path class="cls-5" d="M156.84,58.89a7.91,7.91,0,0,1,6.2,0c2,.85,2.5,2.28,1.05,3.19s-4.38.94-6.41,0-2.34-2.33-.84-3.19"/>
<path class="cls-2" d="M118.28,72c.22-1.55,2.6-2.8,5.31-2.81s4.86,1.2,4.79,2.75-2.45,2.95-5.32,3-5-1.3-4.78-2.91"/>
<path class="cls-3" d="M119.29,65.09c.19-1.36,2.4-2.44,4.94-2.46s4.54,1,4.48,2.41-2.27,2.57-4.94,2.58-4.68-1.13-4.48-2.53"/>
<path class="cls-4" d="M120.1,59c.17-1.19,2.24-2.15,4.62-2.16s4.28.93,4.22,2.12-2.13,2.26-4.62,2.27-4.39-1-4.22-2.23"/>
<path class="cls-5" d="M120.87,53.65c.15-1,2.09-1.9,4.34-1.91s4,.83,4,1.88-2,2-4.34,2-4.13-.88-4-2"/>
<path class="cls-2" d="M127.37,97.59c-.11,2.5-3.12,4.63-6.72,4.67s-6.23-2-5.88-4.55,3.34-4.33,6.7-4.36,6,1.84,5.9,4.24"/>
<path class="cls-3" d="M126.78,110.18c-.14,3-3.46,5.6-7.42,5.65s-6.83-2.47-6.4-5.49,3.71-5.2,7.39-5.24,6.56,2.19,6.43,5.08"/>
<path class="cls-4" d="M126.16,125.53c-.16,3.71-3.87,6.89-8.28,6.95s-7.56-3-7-6.75c.51-3.56,4.19-6.36,8.25-6.41s7.22,2.66,7.07,6.21"/>
<path class="cls-5" d="M125.32,144.75a9.6,9.6,0,0,1-9.38,8.82,7.43,7.43,0,0,1-7.81-8.55,9.71,9.71,0,0,1,9.34-8.05,7.46,7.46,0,0,1,7.85,7.78"/>
<path class="cls-2" d="M105.54,77.4c-1.75-1.21-1.23-3.14,1.09-4.31s5.46-1.16,7.23,0,1.49,3.06-.79,4.3-5.74,1.29-7.53.05"/>
<path class="cls-3" d="M97.69,71.94c-1.58-1.09-1-2.83,1.33-3.9s5.29-1.05,6.89,0,1.2,2.78-1,3.89-5.55,1.16-7.17,0"/>
<path class="cls-4" d="M90.52,67c-1.44-1-.73-2.58,1.52-3.55s5.13-1,6.59,0,1,2.52-1.27,3.54S92,68,90.52,67"/>
<path class="cls-5" d="M84,62.48c-1.32-.9-.54-2.35,1.68-3.23s5-.88,6.3,0,.75,2.31-1.45,3.23-5.19.95-6.53,0"/>
<path class="cls-2" d="M141,90.07c2.44,1.54,2.66,4.15.38,5.84a8.1,8.1,0,0,1-8.76.07c-2.38-1.65-2.33-4.26,0-5.84a8.23,8.23,0,0,1,8.36-.07"/>
<path class="cls-3" d="M152.94,97.62c2.74,1.74,3.25,4.68,1,6.59s-6.54,2-9.31.1-2.9-4.82-.56-6.6,6.18-1.78,8.86-.09"/>
<path class="cls-4" d="M166.5,106.13c3.12,2,4,5.33,1.82,7.51s-6.76,2.31-9.93.12-3.6-5.5-1.31-7.53,6.39-2,9.42-.1"/>
<path class="cls-5" d="M182.06,115.94c3.58,2.26,4.93,6.13,2.87,8.64s-7,2.68-10.65.15-4.51-6.33-2.29-8.67,6.6-2.3,10.07-.12"/>
<path class="cls-2" d="M101.1,87.24c-3.22,0-5.3-1.62-4.67-3.61S100,80.18,103,80.16s5.13,1.46,4.71,3.38-3.39,3.67-6.6,3.7"/>
<path class="cls-3" d="M86.06,87.34c-3.23,0-5.11-1.62-4.22-3.62s4-3.46,7-3.48,5,1.47,4.3,3.4-3.87,3.67-7.09,3.7"/>
<path class="cls-4" d="M70.91,87.49c-3.24,0-4.91-1.63-3.77-3.63s4.43-3.48,7.48-3.5,4.78,1.48,3.87,3.41-4.34,3.69-7.58,3.72"/>
<path class="cls-5" d="M55.59,87.61c-3.25,0-4.72-1.63-3.32-3.64s4.89-3.48,7.94-3.5,4.61,1.48,3.45,3.42-4.82,3.7-8.07,3.72"/>
<path class="cls-2" d="M109.71,96.26c-2.78,1.75-6.79,1.79-8.83.09s-1.29-4.3,1.47-5.89,6.41-1.58,8.43-.07,1.64,4.17-1.07,5.87"/>
<path class="cls-3" d="M96,104.86c-3.18,2-7.47,2-9.45.09s-.85-4.88,2.27-6.68,7-1.8,9-.09,1.28,4.74-1.81,6.68"/>
<path class="cls-4" d="M80.26,114.76c-3.66,2.3-8.29,2.35-10.17.12s-.29-5.6,3.29-7.67,7.72-2,9.63-.1.8,5.42-2.75,7.65"/>
<path class="cls-5" d="M61.86,126.3c-4.27,2.69-9.27,2.75-11,.15s.47-6.5,4.61-8.9,8.58-2.37,10.37-.12.14,6.28-4,8.87"/>
</svg>